<svg xmlns="http://www.w3.org/2000/svg" width="24" height="24" viewBox="0 0 24 24" fill="none" stroke="currentColor" stroke-width="2" stroke-linecap="round" stroke-linejoin="round" class="lucide lucide-boot"><path d="M9 13L6 13c-1.7 0-2.5 0-3.9.7-1.7.7-4.1-2.3-3.9-2.8l.4-2.5c.3-.8.4-1.2.5-1.6 1.4-4.3 10-3.7 12.9-3 1.5.4 2 .5 2.5 0C17 2.2 19.4 2 19.9 3c.5 1-.1 2-1.3 3.5l-1.1 1.3c-.6.7-1.4 1.2-2.1 1.7l.9 3.4c.3 1.3.5 3-1.3 3.1h-3.8"></path><path d="M18 19c-3 0-4.4-2-8-2a31.7 31.7 0 0 0-5.5.5"></path><path d="M14 16l2 3"></path></svg>